<?xml version="1.0" standalone="no"?>
<!DOCTYPE svg PUBLIC "-//W3C//DTD SVG 20010904//EN"
 "http://www.w3.org/TR/2001/REC-SVG-20010904/DTD/svg10.dtd">
<svg version="1.0" xmlns="http://www.w3.org/2000/svg"
 width="814.000000pt" height="464.000000pt" viewBox="0 0 814.000000 464.000000"
 preserveAspectRatio="xMidYMid meet">
<metadata>
Created by potrace 1.16, written by Peter Selinger 2001-2019
</metadata>
<g transform="translate(0.000000,464.000000) scale(0.100000,-0.100000)"
fill="#000000" stroke="none">
<path d="M4380 4159 c-411 -25 -836 -114 -1164 -243 -65 -26 -93 -33 -102 -25
-9 7 -249 7 -789 0 -426 -6 -881 -11 -1010 -11 l-234 0 -3 28 c-2 19 -9 27
-23 27 -15 0 -21 -8 -23 -32 l-3 -33 -207 -2 c-199 -3 -207 -4 -207 -23 0 -19
8 -20 206 -23 l206 -2 6 -42 c3 -22 2 -48 -2 -57 -34 -69 -61 -129 -61 -136 0
-4 -14 -30 -30 -57 -17 -27 -28 -53 -25 -59 12 -19 35 -8 51 24 9 17 20 34 24
37 4 3 13 22 19 42 14 43 31 59 31 28 0 -41 39 -1277 44 -1373 l4 -97 -30 37
c-16 21 -41 57 -54 80 -27 45 -47 58 -62 40 -12 -15 58 -126 112 -179 60 -58
52 -68 -56 -68 -203 0 -380 -13 -385 -27 -3 -8 -1 -19 4 -24 6 -6 313 -1 868
15 472 14 860 25 861 23 1 -1 14 -220 29 -487 14 -267 30 -489 35 -494 5 -5
16 -6 25 -2 14 5 16 21 9 136 -4 84 -3 130 3 130 12 0 69 -18 98 -30 28 -13
97 -30 118 -30 27 0 20 26 -10 38 -16 6 -59 20 -98 32 -101 31 -105 34 -97 47
6 9 537 14 2266 23 1242 6 2261 9 2263 6 3 -2 -22 -31 -55 -64 -33 -33 -58
-63 -54 -66 18 -19 53 -2 93 45 24 28 62 59 84 69 l40 18 3 -94 c2 -74 6 -96
18 -101 8 -3 20 -1 25 4 12 12 -18 1944 -31 1957 -17 17 -40 -3 -41 -36 0 -30
-2 -27 -18 22 -57 171 -161 314 -323 445 -505 406 -1404 622 -2348 564z m592
-49 c269 -18 545 -59 773 -116 282 -71 621 -211 810 -334 248 -162 403 -352
456 -558 88 -344 -156 -695 -656 -944 -928 -463 -2412 -463 -3340 0 -348 173
-580 403 -649 643 -22 78 -23 249 -2 324 122 416 699 771 1496 919 361 67 748
90 1112 66z m-2020 -315 c-312 -164 -524 -368 -613 -590 -13 -33 -29 -64 -36
-68 -16 -10 -17 -177 -2 -291 9 -72 48 -757 44 -764 -4 -6 -1135 -35 -1141
-29 -11 10 89 148 159 220 62 64 84 107 54 107 -21 0 -227 -231 -227 -256 0
-16 -39 -54 -45 -44 -8 13 -57 1473 -53 1569 l3 64 23 -44 c55 -104 68 -124
85 -127 10 -2 17 3 17 12 0 19 -20 66 -36 86 -7 8 -33 54 -58 103 l-46 87 342
1 c189 1 552 5 808 8 256 4 546 8 645 9 l180 2 -103 -55z m4132 -1592 c4 -340
9 -642 13 -672 l6 -54 -61 47 c-34 26 -68 56 -76 68 -16 23 -46 19 -46 -6 0
-13 45 -56 120 -114 27 -22 392 -18 -3388 -38 l-1144 -6 11 20 c15 28 14 52
-1 52 -7 0 -27 -17 -45 -37 -17 -21 -34 -36 -37 -33 -6 7 -40 590 -34 595 2 3
150 9 329 15 178 6 334 12 346 15 13 3 40 -2 60 -11 1133 -483 2872 -329 3626
320 137 118 254 288 288 418 7 26 16 45 20 43 3 -3 9 -283 13 -622z m-4694
418 c32 -64 138 -189 219 -259 87 -74 221 -165 325 -220 l71 -37 -70 -6 c-39
-4 -176 -8 -305 -10 l-235 -4 -15 288 c-8 158 -14 287 -13 287 2 0 12 -18 23
-39z"/>
<path d="M5943 3432 c-4 -8 -1 -23 5 -33 15 -24 36 -155 28 -176 -4 -8 -1 -22
5 -29 6 -7 14 -64 17 -126 6 -99 9 -113 26 -116 17 -4 18 3 14 113 l-3 118 77
-6 c61 -5 78 -3 78 7 0 21 -46 36 -109 36 l-58 0 -7 68 c-4 37 -10 78 -13 91
-6 24 -6 24 61 18 53 -5 66 -4 66 8 0 22 -29 32 -108 37 -60 4 -75 3 -79 -10z"/>
<path d="M3223 3378 c-11 -19 -13 -33 -13 -153 0 -60 6 -137 12 -170 11 -51
16 -60 37 -63 21 -3 23 -1 17 20 -19 68 -29 159 -20 168 6 6 34 13 62 17 34 4
52 10 52 19 0 18 -42 28 -85 20 l-35 -7 0 62 0 62 50 -6 c44 -5 50 -4 50 12 0
11 -7 22 -16 25 -28 11 -103 6 -111 -6z"/>
<path d="M6261 3077 c-15 -19 -4 -27 35 -27 31 0 44 -13 44 -45 0 -7 -17 -15
-38 -19 -53 -8 -79 -38 -64 -71 10 -21 19 -25 53 -25 33 0 48 6 71 30 24 25
36 30 78 30 43 0 50 3 50 20 0 18 -7 20 -54 20 l-53 0 -6 41 c-3 23 -11 46
-19 50 -21 14 -84 10 -97 -4z"/>
<path d="M736 3068 c-8 -13 -17 -43 -20 -68 -22 -155 -27 -169 -67 -201 -39
-30 -43 -49 -12 -49 9 0 25 7 35 17 17 15 18 13 18 -65 0 -108 10 -132 53
-132 45 0 57 15 57 76 0 44 -3 54 -20 59 -12 4 -27 1 -35 -5 -13 -11 -15 -3
-15 54 0 57 4 73 32 118 28 45 33 65 37 127 2 54 0 76 -10 82 -23 14 -38 10
-53 -13z"/>
<path d="M251 2817 c-52 -26 -94 -77 -89 -109 4 -29 38 -38 38 -9 0 47 115
120 144 91 6 -6 13 -51 14 -100 l4 -90 -49 0 c-74 0 -93 -18 -92 -88 2 -96 8
-107 59 -107 40 0 46 3 71 40 15 22 33 57 40 78 11 34 15 37 52 37 52 0 118
20 124 38 10 24 -18 31 -60 16 -22 -8 -55 -14 -73 -14 l-34 0 0 84 c0 85 -11
134 -33 148 -22 14 -72 8 -116 -15z"/>
<path d="M4264 1145 c-36 -16 -58 -40 -49 -55 7 -11 45 -14 45 -2 0 11 51 32
80 32 16 0 38 -12 58 -33 42 -43 44 -97 5 -157 -22 -33 -32 -40 -48 -35 -46
15 -115 17 -130 5 -18 -15 -20 -71 -3 -88 18 -18 77 -14 127 8 26 12 65 20
100 20 78 0 131 10 131 25 0 20 -25 25 -96 18 l-67 -6 27 39 c21 31 26 50 26
100 0 60 -1 62 -45 103 -38 35 -51 41 -87 40 -24 0 -57 -7 -74 -14z"/>
<path d="M4895 1044 c-42 -36 -67 -44 -83 -28 -22 23 -49 16 -73 -17 -18 -26
-22 -43 -20 -98 1 -36 7 -71 13 -78 16 -20 114 -17 122 3 11 28 7 122 -5 126
-7 2 -1 11 13 20 l25 16 -5 -79 c-4 -77 -4 -81 24 -110 26 -28 32 -29 111 -29
64 0 83 3 83 14 0 20 -23 26 -92 26 -46 0 -64 4 -74 18 -19 25 -16 101 6 147
24 49 25 81 4 89 -19 7 -14 10 -49 -20z"/>
</g>
</svg>
