<?xml version="1.0" standalone="no"?>
<!DOCTYPE svg PUBLIC "-//W3C//DTD SVG 20010904//EN"
 "http://www.w3.org/TR/2001/REC-SVG-20010904/DTD/svg10.dtd">
<svg version="1.0" xmlns="http://www.w3.org/2000/svg"
 width="639.000000pt" height="450.000000pt" viewBox="0 0 639.000000 450.000000"
 preserveAspectRatio="xMidYMid meet">
<metadata>
Created by potrace 1.16, written by Peter Selinger 2001-2019
</metadata>
<g transform="translate(0.000000,450.000000) scale(0.100000,-0.100000)"
fill="#000000" stroke="none">
<path d="M557 4191 c-15 -54 -27 -101 -27 -104 0 -3 10 -7 23 -9 l22 -3 5
-1710 5 -1710 2640 -5 2640 -5 3 -22 c2 -13 4 -23 5 -23 50 9 198 59 187 64
-8 3 -54 17 -102 30 l-88 23 0 -24 0 -23 -2635 0 -2635 0 0 1704 0 1705 24 3
23 3 -28 99 c-16 54 -30 100 -31 102 -2 1 -16 -41 -31 -95z"/>
<path d="M2425 3406 c-8 -11 -32 -11 -115 -3 -223 21 -414 -42 -612 -202 -279
-225 -525 -696 -702 -1346 -62 -225 -72 -273 -58 -287 11 -11 14 -3 47 137 9
39 35 133 56 210 206 727 499 1203 849 1380 72 36 189 75 226 75 l24 0 0 -125
c0 -105 -2 -125 -15 -125 -12 0 -14 -6 -8 -27 10 -35 9 -407 -1 -715 -8 -217
-10 -238 -26 -238 -15 0 -16 -6 -10 -42 4 -24 11 -69 15 -101 4 -32 9 -56 12
-53 7 6 42 155 43 179 0 9 -7 17 -15 17 -14 0 -15 14 -10 98 2 53 10 250 16
437 7 253 14 353 25 390 11 34 12 51 5 53 -12 4 -16 178 -5 207 4 10 113 -180
321 -562 374 -686 372 -681 355 -692 -8 -5 6 -30 49 -84 34 -43 64 -76 66 -73
2 2 -4 30 -15 63 -11 32 -23 73 -27 91 -5 26 -11 32 -25 27 -15 -5 -57 67
-255 432 -131 241 -252 463 -268 493 -17 30 -66 120 -109 200 l-78 145 91 3
c247 8 553 -148 804 -409 132 -137 225 -252 504 -619 382 -504 615 -737 856
-857 325 -163 630 -100 966 199 42 37 66 65 62 74 -4 10 -22 0 -65 -38 -274
-241 -511 -332 -741 -284 -277 57 -548 275 -903 727 -54 70 -146 189 -204 265
-303 399 -492 611 -649 730 -79 59 -327 194 -357 194 -7 0 -16 5 -20 11 -12
20 268 2 283 -17 10 -13 22 -14 86 -4 42 6 85 12 96 13 34 2 11 12 -74 32 -44
10 -86 20 -92 22 -7 3 -13 -2 -13 -12 0 -16 -13 -17 -152 -13 -111 4 -163 9
-188 21 -29 13 -38 13 -45 3z"/>
</g>
</svg>
