<?xml version="1.0" standalone="no"?>
<!DOCTYPE svg PUBLIC "-//W3C//DTD SVG 20010904//EN"
 "http://www.w3.org/TR/2001/REC-SVG-20010904/DTD/svg10.dtd">
<svg version="1.0" xmlns="http://www.w3.org/2000/svg"
 width="432.000000pt" height="257.000000pt" viewBox="0 0 432.000000 257.000000"
 preserveAspectRatio="xMidYMid meet">
<metadata>
Created by potrace 1.16, written by Peter Selinger 2001-2019
</metadata>
<g transform="translate(0.000000,257.000000) scale(0.100000,-0.100000)"
fill="#000000" stroke="none">
<path d="M2148 2543 l2152 -3 0 -1255 0 -1255 -2152 -3 -2153 -2 2158 -3 2157
-2 0 1265 0 1265 -2157 -2 -2158 -3 2153 -2z"/>
<path d="M2820 2456 c0 -8 7 -16 15 -20 23 -8 23 -504 0 -512 -8 -4 -15 -12
-15 -20 0 -11 18 -14 79 -14 85 0 108 12 72 36 -39 28 -19 124 25 124 18 0 65
-109 58 -135 l-6 -25 139 0 c77 0 143 3 146 7 4 3 0 14 -8 23 -13 15 -12 21
17 59 l31 43 18 -23 c29 -38 34 -61 14 -75 -32 -24 -6 -34 86 -34 96 0 105 6
65 43 -13 12 -43 59 -67 103 l-43 82 43 57 c23 31 49 59 57 62 8 3 14 11 14
19 0 10 -15 14 -55 14 -42 0 -55 -3 -55 -15 0 -8 5 -15 10 -15 16 0 11 -23
-11 -50 l-21 -25 -19 24 c-23 28 -24 40 -4 47 8 4 15 12 15 20 0 11 -20 14
-89 14 -90 0 -118 -10 -82 -29 19 -10 101 -151 101 -173 0 -6 -21 -40 -47 -75
-79 -104 -100 -99 -177 38 -31 55 -56 102 -56 106 0 14 72 92 90 98 11 4 20
13 20 21 0 11 -15 14 -60 14 -47 0 -60 -3 -60 -15 0 -8 5 -15 10 -15 6 0 10
-5 10 -11 0 -15 -108 -139 -121 -139 -5 0 -9 82 -9 190 l0 190 -65 0 c-49 0
-65 -3 -65 -14z"/>
<path d="M915 2421 c-3 -6 9 -14 27 -19 l33 -8 3 -230 2 -229 -30 -12 c-16 -6
-30 -16 -30 -22 0 -8 38 -11 125 -9 126 3 162 15 93 31 l-38 9 0 94 0 94 59 0
c57 0 59 -1 65 -30 3 -18 12 -30 21 -30 12 0 15 15 15 85 0 70 -3 85 -15 85
-9 0 -18 -12 -21 -30 -6 -29 -8 -30 -65 -30 l-59 0 0 110 0 110 78 0 c90 0
110 -10 114 -60 2 -24 9 -36 21 -38 16 -3 18 3 15 65 l-3 68 -202 3 c-124 1
-204 -1 -208 -7z"/>
<path d="M1772 2213 l3 -38 210 0 210 0 3 38 3 37 -216 0 -216 0 3 -37z"/>
<path d="M2372 2133 l3 -38 213 -3 212 -2 0 40 0 40 -216 0 -215 0 3 -37z"/>
<path d="M1777 2083 c-4 -3 -7 -21 -7 -40 l0 -33 215 0 215 0 0 40 0 40 -208
0 c-115 0 -212 -3 -215 -7z"/>
<path d="M1330 1885 c0 -3 14 -27 31 -54 33 -55 32 -67 -15 -110 -18 -17 -23
-27 -15 -32 19 -11 37 0 32 20 -2 9 5 25 16 35 19 17 20 17 31 -4 6 -12 9 -28
6 -35 -6 -18 11 -23 55 -18 l36 5 -33 56 c-19 31 -34 58 -34 61 0 3 14 20 30
38 35 38 37 43 10 43 -15 0 -20 -7 -20 -24 0 -33 -20 -44 -36 -21 -10 14 -11
22 -3 32 9 10 2 13 -40 13 -28 0 -51 -2 -51 -5z"/>
<path d="M2850 1330 c0 -83 -2 -93 -25 -115 -22 -23 -32 -25 -117 -25 -67 0
-100 4 -115 15 -19 13 -22 13 -27 0 -4 -12 -25 -15 -96 -15 -49 0 -90 4 -90 9
0 15 -38 20 -44 5 -8 -21 -172 -20 -183 1 -7 12 -13 12 -33 2 -35 -18 -187
-20 -197 -3 -12 19 -53 27 -53 10 0 -8 -10 -14 -24 -14 -39 0 -40 -17 -2 -24
19 -4 37 -13 40 -22 3 -8 10 -13 15 -10 5 4 12 0 14 -6 3 -7 6 0 6 15 1 27 3
28 49 25 l47 -3 6 -45 6 -45 1 41 c2 44 13 54 58 54 15 0 24 -6 24 -15 0 -8 6
-15 14 -15 8 0 16 -6 19 -12 2 -7 2 -1 0 15 l-5 27 101 0 c75 0 101 -3 101
-13 0 -7 8 -17 18 -24 16 -9 18 -8 18 11 -1 21 1 21 213 24 278 3 263 12 260
-146 l-1 -117 183 -3 c106 -1 188 -7 195 -13 8 -7 14 -7 19 1 4 6 76 10 201
10 l194 0 0 255 0 255 -395 0 -395 0 0 -90z m769 71 c8 -5 11 -71 9 -237 l-3
-229 -172 -3 c-95 -2 -173 0 -173 5 0 4 9 23 21 42 31 51 21 61 -60 61 -38 0
-73 -4 -76 -10 -3 -5 3 -27 15 -49 11 -22 20 -42 20 -45 0 -3 -75 -4 -167 -3
l-168 2 -3 100 c-2 80 1 106 15 133 17 32 17 34 1 46 -15 11 -18 29 -18 99 0
59 4 87 13 91 19 8 733 5 746 -3z"/>
</g>
</svg>
